<svg xmlns="http://www.w3.org/2000/svg" viewBox="0 0 842 362">
  <style>
    #carrot {
      transform: translateX(0);
    }
    @media all and (max-width: 400px) {
      #wunder { display: none; }
      #carrot {
        transform: translate(-1000%,-200px) scale(2.0);
      }
    }
  </style>
  <g id="carrot">
    <g id="carrotleaves">
      <path id="carrotleaf-1" fill="#95C11F" d="M584.8,100.8c-0.1,1.2-0.2,2.4-0.2,3.6c0,10.4,3.8,20.5,11.4,28.1c6.4,6.4,14.6,10.1,23.2,11.1
        c-6.4-8.5-10.1-18.9-10.1-29.7c0-2.4,0.2-4.9,0.6-7.3c-6.4-4-13.8-6-21.3-6C587.3,100.7,586.1,100.7,584.8,100.8z"/>
      <path id="carrotleaf-2" fill="#95C11F" d="M616.3,106.4c-0.5,2.6-0.7,5.1-0.7,7.6c0,10.6,3.9,20.7,10.6,28.9c-0.1-1-0.1-2-0.1-3
        c0-11.4,4.2-22.6,12.6-31c3.3-3.3,6.9-5.9,10.9-7.9c-0.8-9.6-4.7-18.6-10.9-26C627.2,81.7,618.7,92.8,616.3,106.4z"/>
      <path id="carrotleaf-3" fill="#95C11F" d="M676.1,100.5c-1.2-0.1-2.4-0.2-3.6-0.2c-10.4,0-20.5,3.8-28.1,11.4c-7.6,7.6-11.4,17.7-11.4,28.1
        c0,1.2,0,2.4,0.2,3.7c1.2,0.1,2.4,0.2,3.7,0.2c10.4,0,20.5-3.8,28.1-11.4c7.6-7.6,11.4-17.7,11.4-28.1
        C676.3,102.9,676.2,101.7,676.1,100.5z"/>
    </g>
    <linearGradient id="carrotbody" gradientUnits="userSpaceOnUse" x1="595.856" y1="162.888" x2="662.57" y2="229.602">
      <stop offset="0" stop-color="#F7A941"/>
      <stop offset=".15" stop-color="#F59E39"/>
      <stop offset=".439" stop-color="#F28C2E"/>
      <stop offset=".724" stop-color="#F08128"/>
      <stop offset="1" stop-color="#F07E26"/>
    </linearGradient>
    <path fill="url(#carrotbody)" d="M660.7 161.2c-8.4-7.5-19.4-12.1-31.5-12.1-26.1 0-47.2 21.1-47.2 47.2 0 10.7 3.6 20.5 9.6 28.4 1.2 1.6 2.5 3.2 3.9 4.6l33.7 33.7 33.7-33.7c8.3-8.5 13.5-20.2 13.5-33 0-14-6.1-26.5-15.7-35.1z"/>
  </g>
  <g id="wunder">
    <path fill="#4C565C" d="M546.4 163.5h-1.5c-.5 0-.8-.3-.8-.8s.4-.8.8-.8h4.7c.5 0 .8.3.8.8 0 .4-.4.8-.8.8H548v6.8c0 .4-.4.8-.8.8s-.8-.4-.8-.8v-6.8zm11 2.1l-1.4 2.8c-.1.3-.4.5-.8.5-.3 0-.6-.2-.8-.5l-1.4-2.8v4.7c0 .4-.4.8-.8.8s-.8-.4-.8-.8v-7.5c0-.5.4-.9.9-.9.4 0 .6.2.8.5l2.1 4.2 2.1-4.2c.1-.3.4-.5.8-.5.5 0 .9.4.9.9v7.5c0 .4-.4.8-.8.8s-.8-.4-.8-.8v-4.7zm-357 38l-10.7 36.9c-.9 3.2-3.9 5.5-7.2 5.5s-6.2-2.2-7.2-5.3l-17.2-54c-.3-.6-.3-1.3-.3-1.9 0-3.5 2.7-6.7 6.6-6.7 2.8 0 5.7 1.8 6.4 4.6l11.5 39.2 10.8-38.3c.9-3.2 3.9-5.5 7.2-5.5s6.5 3 7.1 5.3l10.8 38.6 11.5-39.2c.8-2.8 3.6-4.6 6.4-4.6 3.5 0 6.6 2.8 6.6 6.7 0 .6 0 1.3-.3 1.9l-17.2 53.9c-1 3.2-3.9 5.4-7.1 5.4-3.4 0-6.3-2.3-7.2-5.4l-10.5-37.1zm89.7-18.8c0-3.7 2.8-6.7 6.6-6.7 3.7 0 6.7 3 6.7 6.7v50.1c0 3.6-2.3 6.7-5.7 7.9-6.3 2.2-13.2 3.4-20.3 3.4-7.5 0-14.2-2.2-19-7-4.6-4.6-6.8-11.4-6.8-19v-35.3c0-3.7 3-6.7 6.7-6.7 3.6 0 6.6 3 6.6 6.7v36.4c0 8 4.6 12.5 12.5 12.5 4.4 0 8.6-.5 12.6-1.5v-47.5zm64.9 18.1c0-7.9-4.6-12.5-12.6-12.5-4.3 0-8.5.6-12.5 1.7v47.3c0 3.7-3 6.7-6.6 6.7-3.7 0-6.7-3-6.7-6.7v-50c0-3.6 2.2-6.7 5.7-7.9 6.3-2.2 13.2-3.4 20.1-3.4 7.6 0 14.1 2.5 18.7 7.2 4.6 4.6 7.2 11.1 7.2 18.6v35.5c0 3.7-3 6.7-6.7 6.7s-6.6-3-6.6-6.7v-36.5zm24.1 1c0-7.5 2.3-14.1 7-18.7 4.8-4.8 11.4-7.1 18.8-7.1 4.4 0 9.2 1.5 12.6 3.4v-21.7c0-3.7 2.8-6.7 6.6-6.7 3.7 0 6.7 3 6.7 6.7v75.1c0 3.6-2.3 6.7-5.7 7.9-6.4 2.2-13.3 3.4-20.3 3.4-7.5 0-13.9-2.5-18.7-7.2-4.6-4.6-7.1-11.1-7.1-18.7v-16.4zm38.4-8.9c-3.5-3-8-4.6-12.6-4.6-7.9 0-12.5 4.6-12.5 12.5v18.4c0 8 4.6 12.5 12.5 12.5 4.4 0 8.6-.5 12.6-1.7V195zm38 23.4c0 5.3.9 8.8 2.6 11.1 2.2 2.8 5.5 4.4 9.9 4.4 4.9 0 9.5-1.4 13.9-3.4.9-.4 1.8-.6 2.7-.6 3.2 0 6.3 2.7 6.3 6.1 0 2.5-1 4.6-3.4 5.8-6.2 3-12.8 4.4-19.6 4.4-7.5 0-13.9-2.5-18.7-7.2-4.6-4.6-7.1-11.1-7.1-18.7V204c0-7.5 2.5-13.9 7.1-18.6 4.8-4.8 11.2-7.2 18.7-7.2 7.6 0 14.1 2.5 18.7 7.2 4.6 4.6 7.2 11.1 7.2 18.6v6.1c0 4.6-3.7 8.4-8.4 8.4h-29.9zm25.2-12.3c0-10.7-4.4-15.7-12.6-15.7-8.1 0-12.5 4.9-12.5 15.7h25.1zm23.7-8.8c0-11 8.3-19.2 19.2-19.2 3.2 0 6.4.4 9.7 1 3.1.6 5.3 3.2 5.3 6.3 0 3.5-2.6 6.2-6.3 6.2-.8 0-1.2 0-2.2-.3-2.1-.5-4.4-1-6.4-1-3.2 0-5.9 2.7-5.9 5.9v43.1c0 3.7-3 6.7-6.6 6.7-3.7 0-6.7-3-6.7-6.7v-42z"/>
  </g>
</svg>
